<svg width="1242" height="460" viewBox="0 0 1242 460" fill="none" xmlns="http://www.w3.org/2000/svg">
<g clip-path="url(#clip0_148_1145)">
<rect width="1242" height="460" rx="25" fill="url(#paint0_linear_148_1145)"/>
<path d="M1242 338.002C1055.62 338.002 904 186.375 904 0.00112915C904 -186.373 1055.62 -338 1242 -338C1428.37 -338 1580 -186.373 1580 0.00112915C1580 186.375 1428.37 338.002 1242 338.002ZM1242 -333.651C1058.02 -333.651 908.347 -183.975 908.347 0.00112915C908.347 183.977 1058.02 333.653 1242 333.653C1425.97 333.653 1575.65 183.977 1575.65 0.00112915C1575.65 -183.975 1425.97 -333.651 1242 -333.651Z" fill="white" fill-opacity="0.15"/>
<path d="M1242 297.261C1078.09 297.261 944.739 163.91 944.739 0.00109863C944.739 -163.908 1078.09 -297.258 1242 -297.258C1405.91 -297.258 1539.26 -163.908 1539.26 0.00109863C1539.26 163.91 1405.91 297.261 1242 297.261ZM1242 -292.912C1080.49 -292.912 949.088 -161.512 949.088 0.00109863C949.088 161.512 1080.49 292.911 1242 292.911C1403.51 292.911 1534.91 161.512 1534.91 0.00109863C1534.91 -161.512 1403.51 -292.912 1242 -292.912Z" fill="white" fill-opacity="0.15"/>
<path d="M1242 256.519C1100.55 256.519 985.481 141.446 985.481 0.00119019C985.481 -141.443 1100.55 -256.517 1242 -256.517C1383.44 -256.517 1498.52 -141.443 1498.52 0.00119019C1498.52 141.446 1383.44 256.519 1242 256.519ZM1242 -252.17C1102.95 -252.17 989.828 -139.048 989.828 0.00119019C989.828 139.05 1102.95 252.172 1242 252.172C1381.05 252.172 1494.17 139.048 1494.17 0.00119019C1494.17 -139.045 1381.05 -252.17 1242 -252.17Z" fill="white" fill-opacity="0.15"/>
<path d="M1242 215.78C1123.02 215.78 1026.22 118.981 1026.22 0.00126648C1026.22 -118.979 1123.02 -215.777 1242 -215.777C1360.98 -215.777 1457.78 -118.979 1457.78 0.00126648C1457.78 118.981 1360.98 215.78 1242 215.78ZM1242 -211.428C1125.42 -211.428 1030.57 -116.58 1030.57 0.00126648C1030.57 116.583 1125.42 211.431 1242 211.431C1358.58 211.431 1453.43 116.583 1453.43 0.00126648C1453.43 -116.58 1358.58 -211.428 1242 -211.428Z" fill="white" fill-opacity="0.15"/>
<path d="M1242 175.038C1145.48 175.038 1066.96 96.5161 1066.96 0.00105286C1066.96 -96.514 1145.48 -175.036 1242 -175.036C1338.52 -175.036 1417.04 -96.514 1417.04 0.00105286C1417.04 96.5161 1338.52 175.038 1242 175.038ZM1242 -170.687C1147.88 -170.687 1071.31 -94.1157 1071.31 0.00105286C1071.31 94.1179 1147.88 170.689 1242 170.689C1336.12 170.689 1412.69 94.1179 1412.69 0.00105286C1412.69 -94.1157 1336.12 -170.687 1242 -170.687Z" fill="white" fill-opacity="0.15"/>
<path d="M1242 134.297C1167.95 134.297 1107.7 74.0513 1107.7 0.00102234C1107.7 -74.0493 1167.95 -134.294 1242 -134.294C1316.05 -134.294 1376.29 -74.0493 1376.29 0.00102234C1376.29 74.0513 1316.05 134.297 1242 134.297ZM1242 -129.945C1170.34 -129.945 1112.05 -71.651 1112.05 0.00102234C1112.05 71.653 1170.34 129.947 1242 129.947C1313.65 129.947 1371.95 71.6555 1371.95 0.00102234C1371.95 -71.6534 1313.65 -129.945 1242 -129.945Z" fill="white" fill-opacity="0.15"/>
<path d="M1242 93.5574C1190.41 93.5574 1148.44 51.5889 1148.44 0.00102997C1148.44 -51.5869 1190.41 -93.5553 1242 -93.5553C1293.58 -93.5553 1335.56 -51.5845 1335.56 0.00102997C1335.56 51.5865 1293.58 93.5574 1242 93.5574ZM1242 -89.2062C1192.81 -89.2062 1152.79 -49.1886 1152.79 0.00102997C1152.79 49.1907 1192.81 89.2082 1242 89.2082C1291.19 89.2082 1331.21 49.1907 1331.21 0.00102997C1331.21 -49.1886 1291.19 -89.2062 1242 -89.2062Z" fill="white" fill-opacity="0.15"/>
<path d="M1242 52.8159C1212.88 52.8159 1189.18 29.122 1189.18 0.00123215C1189.18 -29.1195 1212.88 -52.8135 1242 -52.8135C1271.12 -52.8135 1294.81 -29.1195 1294.81 0.00123215C1294.81 29.122 1271.12 52.8159 1242 52.8159ZM1242 -48.4644C1215.27 -48.4644 1193.53 -26.7212 1193.53 0.00123215C1193.53 26.7237 1215.27 48.4668 1242 48.4668C1268.72 48.4668 1290.46 26.7261 1290.46 0.00123215C1290.46 -26.7236 1268.72 -48.4644 1242 -48.4644Z" fill="white" fill-opacity="0.15"/>
<path d="M295.409 379.043L295.409 617.245C295.409 619.478 293.599 621.288 291.366 621.288C289.133 621.288 287.323 619.478 287.323 617.245L287.323 379.043C287.323 376.81 289.133 375 291.366 375C293.599 375 295.409 376.81 295.409 379.043Z" fill="white" fill-opacity="0.15"/>
<path d="M267.771 379.043L267.771 617.245C267.771 619.478 265.961 621.288 263.728 621.288C261.495 621.288 259.685 619.478 259.685 617.245L259.685 379.043C259.685 376.81 261.495 375 263.728 375C265.961 375 267.771 376.81 267.771 379.043Z" fill="white" fill-opacity="0.15"/>
<path d="M240.13 379.043L240.13 617.245C240.13 619.478 238.32 621.288 236.087 621.288C233.854 621.288 232.044 619.478 232.044 617.245L232.044 379.043C232.044 376.81 233.854 375 236.087 375C238.32 375 240.13 376.81 240.13 379.043Z" fill="white" fill-opacity="0.15"/>
<path d="M212.492 379.043L212.492 617.245C212.492 619.478 210.682 621.288 208.449 621.288C206.216 621.288 204.406 619.478 204.406 617.245L204.406 379.043C204.406 376.81 206.216 375 208.449 375C210.682 375 212.492 376.81 212.492 379.043Z" fill="white" fill-opacity="0.15"/>
<path d="M184.851 379.043L184.851 617.245C184.851 619.478 183.04 621.288 180.807 621.288C178.575 621.288 176.764 619.478 176.764 617.245L176.764 379.043C176.764 376.81 178.574 375 180.807 375C183.04 375 184.851 376.81 184.851 379.043Z" fill="white" fill-opacity="0.15"/>
<path d="M157.209 379.043L157.209 617.245C157.209 619.478 155.399 621.288 153.166 621.288C150.933 621.288 149.123 619.478 149.123 617.245L149.123 379.043C149.123 376.81 150.933 375 153.166 375C155.399 375 157.209 376.81 157.209 379.043Z" fill="white" fill-opacity="0.15"/>
<path d="M129.568 379.043L129.568 617.245C129.568 619.478 127.758 621.288 125.525 621.288C123.292 621.288 121.482 619.478 121.482 617.245L121.482 379.043C121.482 376.81 123.292 375 125.525 375C127.758 375 129.568 376.81 129.568 379.043Z" fill="white" fill-opacity="0.15"/>
<path d="M101.93 379.043L101.93 617.245C101.93 619.478 100.12 621.288 97.8869 621.288C95.654 621.288 93.8439 619.478 93.8439 617.245L93.8439 379.043C93.8439 376.81 95.654 375 97.8869 375C100.12 375 101.93 376.81 101.93 379.043Z" fill="white" fill-opacity="0.15"/>
<path d="M74.2889 379.043L74.2889 617.245C74.2889 619.478 72.4788 621.288 70.2458 621.288C68.0129 621.288 66.2028 619.478 66.2028 617.245L66.2027 379.043C66.2027 376.81 68.0128 375 70.2458 375C72.4788 375 74.2889 376.81 74.2889 379.043Z" fill="white" fill-opacity="0.15"/>
<path d="M46.6477 379.043L46.6478 617.245C46.6478 619.478 44.8377 621.288 42.6047 621.288C40.3717 621.288 38.5616 619.478 38.5616 617.245L38.5616 379.043C38.5616 376.81 40.3717 375 42.6047 375C44.8376 375 46.6477 376.81 46.6477 379.043Z" fill="white" fill-opacity="0.15"/>
<path d="M19.0067 379.043L19.0067 617.245C19.0067 619.478 17.1965 621.288 14.9635 621.288C12.7306 621.288 10.9205 619.478 10.9205 617.245L10.9205 379.043C10.9205 376.81 12.7306 375 14.9635 375C17.1965 375 19.0067 376.81 19.0067 379.043Z" fill="white" fill-opacity="0.15"/>
<path d="M304.501 85.0702C257.316 85.0702 218.93 46.6839 218.93 -0.50135C218.93 -47.6866 257.316 -86.0729 304.501 -86.0729C351.687 -86.0729 390.073 -47.6866 390.073 -0.50135C390.073 46.6839 351.687 85.0702 304.501 85.0702ZM304.501 -78.817C261.317 -78.817 226.186 -43.6859 226.186 -0.50135C226.186 42.6832 261.319 77.8143 304.501 77.8143C347.683 77.8143 382.817 42.6806 382.817 -0.50135C382.817 -43.6833 347.686 -78.817 304.501 -78.817Z" fill="white" fill-opacity="0.15"/>
<path d="M304.114 50.89C275.564 50.89 252.339 27.664 252.339 -0.885777C252.339 -29.4356 275.564 -52.6615 304.114 -52.6615C332.664 -52.6615 355.89 -29.4356 355.89 -0.885777C355.89 27.664 332.664 50.89 304.114 50.89ZM304.114 -48.2713C277.985 -48.2713 256.729 -27.0149 256.729 -0.885777C256.729 25.2434 277.987 46.4997 304.114 46.4997C330.242 46.4997 351.5 25.2418 351.5 -0.885777C351.5 -27.0133 330.243 -48.2713 304.114 -48.2713Z" fill="white" fill-opacity="0.15"/>
<path d="M304.501 127C234.198 127 177 69.8025 177 -0.501328C177 -70.8051 234.198 -128 304.501 -128C374.805 -128 432 -70.8051 432 -0.501328C432 69.8025 374.808 127 304.501 127ZM304.501 -120.744C238.198 -120.744 184.256 -66.8018 184.256 -0.501328C184.256 65.8017 238.198 119.744 304.501 119.744C370.802 119.744 424.744 65.8017 424.744 -0.501328C424.747 -66.8044 370.804 -120.744 304.501 -120.744Z" fill="white" fill-opacity="0.15"/>
<path d="M705.018 418H537.007L453 272.5L537.007 127H705.015L789.019 272.5L705.018 418ZM547.389 400.022H694.64L768.265 272.5L694.64 144.982H547.389L473.763 272.5L547.389 400.022Z" fill="white" fill-opacity="0.15"/>
</g>
<defs>
<linearGradient id="paint0_linear_148_1145" x1="-108.675" y1="-82.3956" x2="792.165" y2="452.597" gradientUnits="userSpaceOnUse">
<stop stop-color="#108BBC"/>
<stop offset="1" stop-color="#02C39A"/>
</linearGradient>
<clipPath id="clip0_148_1145">
<rect width="1242" height="460" rx="25" fill="white"/>
</clipPath>
</defs>
</svg>
